<?xml version="1.0" encoding="UTF-8" standalone="no"?> <svg id="Layer_1" data-name="Layer 1" xmlns="http://www.w3.org/2000/svg" viewBox="0 0 512 512"><defs><style>.cls-1{fill:#f4607f;}.cls-2{fill:#eddc8a;}.cls-3{fill:#6ace92;}.cls-4{opacity:0.1;}.cls-5{fill:#231f20;}</style></defs><title>rainbow-flat</title><path class="cls-1" d="M464.84,276.21H424.42c0-92.87-75.55-168.42-168.42-168.42S87.58,183.34,87.58,276.21H47.16C47.16,161.06,140.85,67.37,256,67.37S464.84,161.06,464.84,276.21Z"/><path class="cls-2" d="M424.42,276.21H384a128,128,0,0,0-256,0H87.58c0-92.87,75.55-168.42,168.42-168.42S424.42,183.34,424.42,276.21Z"/><path class="cls-3" d="M384,276.21H343.58a87.58,87.58,0,1,0-175.16,0H128a128,128,0,0,1,256,0Z"/><path class="cls-1" d="M512,317a60.09,60.09,0,0,1-18.32,43.12l-89.47,84.55-89.4-84.55a59.73,59.73,0,0,1,0-86.23,63.79,63.79,0,0,1,88.52,0l.88.88.88-.88c24.52-23.78,64.13-23.78,88.59,0A60.2,60.2,0,0,1,512,317Z"/><path class="cls-1" d="M215.58,317a60.09,60.09,0,0,1-18.32,43.12l-89.47,84.55-89.4-84.55a59.73,59.73,0,0,1,0-86.23,63.79,63.79,0,0,1,88.52,0l.88.88.88-.88c24.52-23.78,64.13-23.78,88.59,0A60.2,60.2,0,0,1,215.58,317Z"/><g class="cls-4"><path class="cls-5" d="M215.58,317a60.09,60.09,0,0,1-18.32,43.12l-89.47,84.55V274.73l.88-.88c24.52-23.78,64.13-23.78,88.59,0A60.2,60.2,0,0,1,215.58,317Z"/></g><g class="cls-4"><path class="cls-5" d="M512,317a60.09,60.09,0,0,1-18.32,43.12l-89.47,84.55V274.73l.88-.88c24.52-23.78,64.13-23.78,88.59,0A60.2,60.2,0,0,1,512,317Z"/></g></svg>