<?xml version="1.0" encoding="UTF-8" standalone="no"?> <svg width="48" height="48" viewBox="0 0 48 48" fill="none" xmlns="http://www.w3.org/2000/svg">
<path d="M37.21 38.94C39.6239 37.2693 41.5946 35.036 42.9518 32.433C44.3091 29.83 45.0121 26.9356 45 24V23.97C44.9855 23.0536 44.6422 22.1729 44.0329 21.4883C43.4235 20.8037 42.5885 20.3607 41.68 20.24L40.41 20.06C40.1386 20.0201 39.8636 20.01 39.59 20.03L37.86 20.15L32.15 20.56L28.21 20.84C27.2232 20.9111 26.2383 20.6789 25.3872 20.1744C24.5361 19.67 23.8596 18.9174 23.4483 18.0176C23.037 17.1178 22.9107 16.1137 23.0861 15.1401C23.2616 14.1664 23.7305 13.2696 24.43 12.57L27.03 9.97C27.3326 9.66754 27.564 9.30154 27.7076 8.89853C27.8511 8.49553 27.9032 8.06562 27.86 7.64C27.7947 6.94311 27.4742 6.29492 26.96 5.82C26.4435 5.34101 25.7737 5.06104 25.07 5.03C24.71 5.01 24.36 5 24 5C12.4 5 3 12.95 3 24C3 35.05 12.4 43 24 43C27.0382 43.0162 30.0506 42.4422 32.87 41.31L37.21 38.94Z" fill="#EAEFF0"/>
<path d="M41.68 20.24L40.41 20.06C40.1386 20.0201 39.8636 20.01 39.59 20.03L37.946 20.144C35.4539 26.0217 30.8871 30.7774 25.1152 33.5055C19.3432 36.2337 12.7695 36.7435 6.646 34.938C10.425 39.922 16.785 43 24 43C27.0382 43.0162 30.0506 42.4422 32.87 41.31L37.21 38.94C39.6238 37.2693 41.5946 35.036 42.9518 32.433C44.3091 29.83 45.0121 26.9356 45 24V23.97C44.9854 23.0536 44.6422 22.1729 44.0329 21.4883C43.4235 20.8037 42.5885 20.3607 41.68 20.24V20.24Z" fill="#D9E1E2"/>
<path d="M11 23C12.6569 23 14 21.6569 14 20C14 18.3431 12.6569 17 11 17C9.34315 17 8 18.3431 8 20C8 21.6569 9.34315 23 11 23Z" fill="#FD3730"/>
<path d="M13.5 33.5C15.1569 33.5 16.5 32.1569 16.5 30.5C16.5 28.8431 15.1569 27.5 13.5 27.5C11.8431 27.5 10.5 28.8431 10.5 30.5C10.5 32.1569 11.8431 33.5 13.5 33.5Z" fill="#FAC100"/>
<path d="M24 38C25.6569 38 27 36.6569 27 35C27 33.3431 25.6569 32 24 32C22.3431 32 21 33.3431 21 35C21 36.6569 22.3431 38 24 38Z" fill="#00CF66"/>
<path d="M24 38.0001C24.585 38.0015 25.1575 37.8315 25.6469 37.511C26.1362 37.1905 26.5209 36.7336 26.7532 36.1967C26.9856 35.6599 27.0556 35.0667 26.9544 34.4906C26.8532 33.9145 26.5854 33.3806 26.184 32.9551C24.5361 33.8316 22.7979 34.5266 21 35.0281C21.0074 35.8189 21.3267 36.5748 21.8885 37.1313C22.4503 37.6879 23.2092 38.0001 24 38.0001Z" fill="#00B157"/>
<path d="M34.9999 45C34.463 45 33.947 44.7915 33.561 44.4183C33.175 44.0452 32.949 43.5366 32.9309 43L32.0999 19C32.0864 18.6108 32.1515 18.223 32.2912 17.8595C32.431 17.496 32.6424 17.1644 32.9131 16.8844C33.1837 16.6045 33.508 16.3819 33.8665 16.2299C34.225 16.078 34.6105 15.9998 34.9999 16V16C35.3893 15.9998 35.7747 16.078 36.1332 16.2299C36.4918 16.3819 36.816 16.6045 37.0867 16.8844C37.3573 17.1644 37.5688 17.496 37.7085 17.8595C37.8482 18.223 37.9133 18.6108 37.8999 19L37.0719 43C37.0537 43.5371 36.8273 44.0461 36.4407 44.4194C36.054 44.7926 35.5373 45.0008 34.9999 45V45Z" fill="#FFD188"/>
<path d="M34.0771 3C34.0771 5.769 31.3081 7.615 31.3081 11.308C31.3081 12.2872 31.6971 13.2263 32.3895 13.9186C33.0819 14.611 34.0209 15 35.0001 15C35.9793 15 36.9184 14.611 37.6107 13.9186C38.3031 13.2263 38.6921 12.2872 38.6921 11.308C38.6921 6.692 34.0771 3 34.0771 3Z" fill="#E67244"/>
<path d="M31.6558 12.8518C32.0068 13.6166 32.6088 14.2382 33.362 14.6135C34.1151 14.9887 34.974 15.095 35.7958 14.9146C36.6177 14.7343 37.3532 14.2781 37.88 13.622C38.4068 12.9659 38.6932 12.1493 38.6918 11.3078C38.6831 10.4157 38.5217 9.53158 38.2148 8.69385C37.4544 9.78967 36.4823 10.7221 35.3558 11.4363C34.2293 12.1504 32.9713 12.6317 31.6558 12.8518V12.8518Z" fill="#C6512B"/>
<path d="M46 23.9698C45.9821 22.8135 45.5509 21.7019 44.7843 20.8361C44.0178 19.9703 42.9666 19.4075 41.821 19.2498L40.557 19.0698C40.214 19.0207 39.8667 19.008 39.521 19.0318L38.894 19.0758V19.0318C38.9267 18.3301 38.7639 17.6332 38.4236 17.0187C38.0833 16.4042 37.5791 15.8964 36.967 15.5518C37.7781 15.1773 38.4653 14.5789 38.9477 13.827C39.4301 13.0752 39.6877 12.2011 39.69 11.3078C39.69 6.26976 34.904 2.38176 34.7 2.21876C34.5529 2.10158 34.3757 2.02827 34.1888 2.00725C34.0019 1.98622 33.8129 2.01833 33.6434 2.09988C33.4739 2.18143 33.3309 2.30913 33.2307 2.4683C33.1305 2.62748 33.0772 2.81168 33.077 2.99976C32.9673 4.09498 32.585 5.14527 31.965 6.05476C30.949 7.62428 30.3765 9.43937 30.308 11.3078C30.3103 12.2011 30.5679 13.0752 31.0503 13.827C31.5327 14.5789 32.2199 15.1773 33.031 15.5518C32.4189 15.8964 31.9147 16.4042 31.5744 17.0187C31.2341 17.6332 31.0713 18.3301 31.104 19.0318L31.125 19.6318L28.138 19.8448C27.587 19.8826 27.0343 19.8022 26.5169 19.6091C25.9995 19.4159 25.5294 19.1144 25.138 18.7248C24.4163 18.0023 24.011 17.0229 24.011 16.0018C24.011 14.9806 24.4163 14.0012 25.138 13.2788L27.738 10.6788C28.107 10.3094 28.3979 9.86951 28.5933 9.38533C28.7887 8.90114 28.8845 8.38257 28.8752 7.86053C28.8659 7.3385 28.7515 6.82368 28.539 6.34679C28.3264 5.8699 28.02 5.44069 27.638 5.08476C26.9518 4.44864 26.0627 4.07596 25.128 4.03276C24.748 4.01076 24.379 3.99976 24 3.99976C11.458 3.99976 2 12.5998 2 23.9998C2 35.3998 11.458 43.9998 24 43.9998C26.6934 44.0031 29.369 43.5639 31.92 42.6998L31.932 43.0348C31.9607 43.8293 32.2965 44.5817 32.8687 45.1336C33.4409 45.6855 34.205 45.994 35 45.994C35.795 45.994 36.5591 45.6855 37.1313 45.1336C37.7035 44.5817 38.0393 43.8293 38.068 43.0348L38.192 39.4508C40.6196 37.6665 42.5919 35.3346 43.9486 32.6447C45.3054 29.9547 46.0082 26.9825 46 23.9698V23.9698ZM33.1 18.9638C33.0855 18.7057 33.1238 18.4473 33.2125 18.2045C33.3013 17.9618 33.4387 17.7397 33.6163 17.5518C33.7939 17.364 34.0079 17.2143 34.2453 17.112C34.4827 17.0098 34.7385 16.957 34.997 16.957C35.2555 16.957 35.5113 17.0098 35.7487 17.112C35.9861 17.2143 36.2001 17.364 36.3777 17.5518C36.5553 17.7397 36.6927 17.9618 36.7815 18.2045C36.8702 18.4473 36.9085 18.7057 36.894 18.9638L36.827 20.9998H33.173L33.1 18.9638ZM33.715 7.01776C34.0935 6.36558 34.4228 5.68602 34.7 4.98476C35.951 6.33776 37.689 8.68476 37.689 11.3078C37.689 12.0217 37.4054 12.7064 36.9005 13.2113C36.3957 13.7161 35.711 13.9998 34.997 13.9998C34.283 13.9998 33.5983 13.7161 33.0935 13.2113C32.5886 12.7064 32.305 12.0217 32.305 11.3078C32.3801 9.77642 32.8684 8.29398 33.718 7.01776H33.715ZM24 41.9998C12.6 41.9998 4 34.2618 4 23.9998C4 13.7378 12.6 5.99976 24 5.99976C24.341 5.99976 24.672 6.00876 25.03 6.02876C25.497 6.05082 25.941 6.23792 26.283 6.55676C26.6176 6.86649 26.825 7.28957 26.865 7.74376C26.8923 8.02125 26.8579 8.30135 26.7642 8.56397C26.6705 8.82659 26.5198 9.06522 26.323 9.26276L23.723 11.8628C22.8797 12.7065 22.3144 13.7878 22.1028 14.9619C21.8912 16.1359 22.0435 17.3465 22.5393 18.4316C23.035 19.5167 23.8505 20.4243 24.8766 21.0329C25.9026 21.6415 27.0901 21.922 28.28 21.8368L31.193 21.6298L31.847 40.6088C29.335 41.536 26.6776 42.007 24 41.9998V41.9998ZM35 43.9998C34.7224 44.0007 34.4554 43.8932 34.2557 43.7003C34.0561 43.5074 33.9396 43.2442 33.931 42.9668L33.242 22.9998H36.758L36.069 42.9668C36.0604 43.2442 35.9439 43.5074 35.7443 43.7003C35.5446 43.8932 35.2776 44.0007 35 43.9998V43.9998ZM38.283 36.7998L38.825 21.0858L39.666 21.0268C39.8663 21.0133 40.0674 21.021 40.266 21.0498L41.534 21.2298C42.2091 21.3185 42.8298 21.6472 43.2825 22.1558C43.7353 22.6644 43.99 23.3189 44 23.9998C44.0063 26.4162 43.5 28.8066 42.5145 31.013C41.5291 33.2194 40.0868 35.1917 38.283 36.7998V36.7998Z" fill="black"/>
<path d="M15 20C15 19.2089 14.7654 18.4355 14.3259 17.7777C13.8864 17.1199 13.2616 16.6072 12.5307 16.3045C11.7998 16.0017 10.9956 15.9225 10.2196 16.0769C9.44372 16.2312 8.73098 16.6122 8.17157 17.1716C7.61216 17.731 7.2312 18.4437 7.07686 19.2196C6.92252 19.9956 7.00173 20.7998 7.30448 21.5307C7.60723 22.2616 8.11992 22.8864 8.77772 23.3259C9.43552 23.7654 10.2089 24 11 24C12.0609 24 13.0783 23.5786 13.8284 22.8284C14.5786 22.0783 15 21.0609 15 20ZM9 20C9 19.6044 9.1173 19.2178 9.33706 18.8889C9.55683 18.56 9.86918 18.3036 10.2346 18.1522C10.6001 18.0009 11.0022 17.9613 11.3902 18.0384C11.7781 18.1156 12.1345 18.3061 12.4142 18.5858C12.6939 18.8655 12.8844 19.2219 12.9616 19.6098C13.0387 19.9978 12.9991 20.3999 12.8478 20.7654C12.6964 21.1308 12.44 21.4432 12.1111 21.6629C11.7822 21.8827 11.3956 22 11 22C10.4696 22 9.96086 21.7893 9.58579 21.4142C9.21072 21.0391 9 20.5304 9 20Z" fill="black"/>
<path d="M13.5 26.5C12.7089 26.5 11.9355 26.7346 11.2777 27.1741C10.6199 27.6136 10.1072 28.2384 9.80448 28.9693C9.50173 29.7002 9.42252 30.5044 9.57686 31.2804C9.7312 32.0563 10.1122 32.769 10.6716 33.3284C11.231 33.8878 11.9437 34.2688 12.7196 34.4231C13.4956 34.5775 14.2998 34.4983 15.0307 34.1955C15.7616 33.8928 16.3864 33.3801 16.8259 32.7223C17.2654 32.0645 17.5 31.2911 17.5 30.5C17.5 29.4391 17.0786 28.4217 16.3284 27.6716C15.5783 26.9214 14.5609 26.5 13.5 26.5ZM13.5 32.5C13.1044 32.5 12.7178 32.3827 12.3889 32.1629C12.06 31.9432 11.8036 31.6308 11.6522 31.2654C11.5009 30.8999 11.4613 30.4978 11.5384 30.1098C11.6156 29.7219 11.8061 29.3655 12.0858 29.0858C12.3655 28.8061 12.7219 28.6156 13.1098 28.5384C13.4978 28.4613 13.8999 28.5009 14.2654 28.6522C14.6308 28.8036 14.9432 29.06 15.1629 29.3889C15.3827 29.7178 15.5 30.1044 15.5 30.5C15.5 31.0304 15.2893 31.5391 14.9142 31.9142C14.5391 32.2893 14.0304 32.5 13.5 32.5Z" fill="black"/>
<path d="M24 31C23.2089 31 22.4355 31.2346 21.7777 31.6741C21.1199 32.1136 20.6072 32.7384 20.3045 33.4693C20.0017 34.2002 19.9225 35.0044 20.0769 35.7804C20.2312 36.5563 20.6122 37.269 21.1716 37.8284C21.731 38.3878 22.4437 38.7688 23.2196 38.9231C23.9956 39.0775 24.7998 38.9983 25.5307 38.6955C26.2616 38.3928 26.8864 37.8801 27.3259 37.2223C27.7654 36.5645 28 35.7911 28 35C28 33.9391 27.5786 32.9217 26.8284 32.1716C26.0783 31.4214 25.0609 31 24 31ZM24 37C23.6044 37 23.2178 36.8827 22.8889 36.6629C22.56 36.4432 22.3036 36.1308 22.1522 35.7654C22.0009 35.3999 21.9613 34.9978 22.0384 34.6098C22.1156 34.2219 22.3061 33.8655 22.5858 33.5858C22.8655 33.3061 23.2219 33.1156 23.6098 33.0384C23.9978 32.9613 24.3999 33.0009 24.7654 33.1522C25.1308 33.3036 25.4432 33.56 25.6629 33.8889C25.8827 34.2178 26 34.6044 26 35C26 35.5304 25.7893 36.0391 25.4142 36.4142C25.0391 36.7893 24.5304 37 24 37Z" fill="black"/>
</svg>
